<?xml version="1.0" encoding="iso-8859-1"?>
<!-- Generator: Adobe Illustrator 19.0.0, SVG Export Plug-In . SVG Version: 6.00 Build 0)  -->
<svg version="1.1" id="Capa_1" xmlns="http://www.w3.org/2000/svg" xmlns:xlink="http://www.w3.org/1999/xlink" x="0px" y="0px"
	 viewBox="0 0 385.6 385.6" style="enable-background:new 0 0 385.6 385.6;" xml:space="preserve">
<path style="fill:#94C83D;" d="M192.8,10c100.8,0,182.4,81.6,182.4,182.4s-81.6,182.4-182.4,182.4S10.4,293.2,10.4,192.4
	S92,10,192.8,10"/>
<g>
	<path style="fill:#5E9641;" d="M314.8,70.4C283.6,39.2,240.4,20,192.8,20S102,39.2,70.8,70.4s-50.4,74.4-50.4,122
		s19.2,90.8,50.4,122s74.4,50.4,122,50.4s90.8-19.2,122-50.4c31.2-31.2,50.4-74.4,50.4-122S346,101.6,314.8,70.4 M192.8,0
		C246,0,294,21.6,328.8,56.4s56.4,82.8,56.4,136s-21.6,101.2-56.4,136s-82.8,56.4-136,56.4s-101.2-21.6-136-56.4
		s-56.4-82.8-56.4-136S22,91.2,56.8,56.4S139.6,0,192.8,0z"/>
	<path style="fill:#5E9641;" d="M234,67.2C222.8,38,208,20,192.8,20c-15.2,0-29.6,18-41.2,47.2c-12.4,32-20,76-20,125.2
		s7.6,93.6,20,125.2c11.2,29.2,26,47.2,41.2,47.2c15.2,0,29.6-18,41.2-47.2c12.4-32,20-76,20-125.2S246.4,98.8,234,67.2 M192.8,0
		c24.4,0,45.2,22.8,59.6,60c13.2,34,21.6,81.2,21.6,132.8s-8.4,98.4-21.6,132.8c-14.4,36.8-35.6,60-59.6,60s-45.2-22.8-59.6-60
		c-13.2-34-21.6-81.2-21.6-132.8S120,94.4,133.2,60C147.6,22.8,168.4,0,192.8,0z"/>
	<path style="fill:#5E9641;" d="M284.8,124.4c22.8-5.2,42-12,56-20C326.4,80,306,59.6,281.6,44.8c-26-15.6-56.4-24.8-89.2-24.8
		s-63.2,9.2-89.2,24.8C78.8,59.6,58.4,80,44,104.4c14,8,33.2,14.8,56,20c26.8,6,58.4,9.2,92,9.2C226.8,133.6,258,130,284.8,124.4
		 M360,116c-16.4,11.6-41.2,21.2-70.8,27.6c-28.4,6.4-61.2,10-96.4,10s-68-3.6-96.4-10c-29.6-6.4-54.4-16-70.8-27.6
		c-4-2.8-5.6-8.4-3.2-12.8C38.8,72,63.6,46,93.2,27.6C122.4,10,156.4,0,192.8,0s70.4,10,99.6,27.6c30,18,54.8,44.4,71.2,75.6
		C365.6,107.6,364,113.2,360,116z"/>
	<path style="fill:#5E9641;" d="M289.2,241.2c29.6,6.4,54,16,70.8,27.6c4,2.8,5.6,8.4,3.2,12.8c-16.4,31.2-41.2,57.2-71.2,75.6
		c-29.2,17.6-63.2,27.6-99.6,27.6s-70.4-10-99.6-27.6c-30-18-54.8-44.4-70.8-75.6c-2.4-4.4-1.2-10,3.2-12.8
		c16.4-11.6,41.2-21.2,70.8-27.6c28.4-6.4,61.2-10,96.4-10C228,231.2,260.8,234.8,289.2,241.2 M341.2,280.4c-14-8-33.2-14.8-56-20
		c-26.8-6-58.4-9.2-92-9.2c-34,0-65.2,3.6-92,9.2c-22.8,5.2-42,12-56,20c14.4,24.4,34.8,44.8,59.2,59.6c26,15.6,56.4,24.8,89.2,24.8
		s63.2-9.2,89.2-24.8C306.4,325.2,326.4,304.8,341.2,280.4z"/>
</g>
<g>
</g>
<g>
</g>
<g>
</g>
<g>
</g>
<g>
</g>
<g>
</g>
<g>
</g>
<g>
</g>
<g>
</g>
<g>
</g>
<g>
</g>
<g>
</g>
<g>
</g>
<g>
</g>
<g>
</g>
</svg>
